<svg width="97" height="114" viewBox="0 0 97 114" fill="none" xmlns="http://www.w3.org/2000/svg">
<path d="M71.6 14.2744C70.8 14.2744 70 13.7744 69.7 12.9744C69 11.1744 68.3 9.77444 67.5 8.57444C66.9 7.67444 67.1 6.47444 68 5.77444C68.9 5.17444 70.1 5.37444 70.8 6.27444C71.9 7.77444 72.7 9.47444 73.5 11.6744C73.9 12.6744 73.3 13.8744 72.3 14.2744C72 14.1744 71.8 14.2744 71.6 14.2744Z" fill="white"/>
<path d="M9 88.9744C8.1 88.9744 7.3 88.3744 7.1 87.4744C6.4 84.7744 5.8 81.4744 5.1 77.1744C5 76.0744 5.7 75.0744 6.8 74.9744C7.9 74.7744 8.9 75.5744 9.1 76.6744C9.7 80.7744 10.3 83.9744 11 86.5744C11.3 87.6744 10.6 88.7744 9.6 88.9744C9.4 88.9744 9.2 88.9744 9 88.9744ZM5.8 68.7744C4.8 68.7744 3.9 68.0744 3.8 66.9744C3.4 63.8744 3.1 60.4744 2.6 56.7744C2.5 55.6744 3.3 54.6744 4.4 54.5744C5.5 54.4744 6.5 55.2744 6.6 56.3744C7 59.9744 7.4 63.3744 7.8 66.4744C7.9 67.5744 7.1 68.5744 6 68.6744C5.9 68.7744 5.9 68.7744 5.8 68.7744ZM3.5 48.3744C2.5 48.3744 1.6 47.5744 1.5 46.5744C1 42.2744 0.7 39.0744 0.5 36.2744C0.4 35.1744 1.2 34.1744 2.3 34.0744C3.4 33.9744 4.4 34.7744 4.5 35.8744C4.7 38.6744 5 41.7744 5.5 46.0744C5.6 47.1744 4.8 48.1744 3.7 48.2744C3.7 48.3744 3.6 48.3744 3.5 48.3744ZM2 27.8744C0.9 27.8744 0 26.9744 0 25.8744V25.6744C0 21.1744 0.4 17.8744 1.3 15.1744C1.6 14.1744 2.8 13.5744 3.8 13.8744C4.8 14.1744 5.4 15.3744 5.1 16.3744C4.4 18.6744 4 21.5744 4 25.6744V25.8744C4 26.9744 3.1 27.8744 2 27.8744ZM9.8 10.3744C9.1 10.3744 8.4 9.97443 8 9.27443C7.5 8.27443 8 7.07443 8.9 6.57443C11.5 5.37443 14.7 4.47443 19.3 3.67443C20.4 3.47443 21.4 4.17443 21.6 5.27443C21.8 6.37443 21.1 7.37443 20 7.57443C15.8 8.27443 12.9 9.07443 10.7 10.1744C10.4 10.2744 10.1 10.3744 9.8 10.3744ZM29.8 6.17443C28.8 6.17443 27.9 5.37443 27.8 4.37443C27.7 3.27443 28.5 2.27443 29.6 2.17443C31.4 1.97443 33.3 1.77443 35.3 1.57443C36.9 1.37443 38.3 1.27443 39.8 1.07443C40.9 0.974433 41.9 1.77443 42 2.87443C42.1 3.97443 41.3 4.97443 40.2 5.07443C38.8 5.27443 37.3 5.37443 35.7 5.57443C33.7 5.77443 31.8 5.97443 30 6.17443C30 6.17443 29.9 6.17443 29.8 6.17443ZM60.5 4.37443C60.4 4.37443 60.3 4.37443 60.2 4.37443C57.8 3.97443 54.8 3.87443 50.4 4.17443C49.3 4.27443 48.3 3.37443 48.3 2.27443C48.2 1.17443 49.1 0.174433 50.2 0.174433C54.8 -0.125567 58 -0.0255667 60.8 0.374433C61.9 0.574433 62.6 1.57443 62.4 2.67443C62.3 3.67443 61.4 4.37443 60.5 4.37443Z" fill="white"/>
<path d="M17.7 101.574C17.5 101.574 17.2 101.574 16.9 101.474C14.8 100.674 13.1 99.3744 11.7 97.7744C11 96.9744 11.1 95.6744 11.9 94.9744C12.7 94.2744 14 94.3744 14.7 95.1744C15.7 96.3744 16.9 97.1744 18.4 97.7744C19.4 98.1744 19.9 99.3744 19.5 100.374C19.3 101.074 18.5 101.574 17.7 101.574Z" fill="white"/>
<path d="M58.4 62.3744C58.4 67.6744 54.5 72.4744 50.3 75.3744C43.9 72.9744 38.4 68.9744 38.4 62.1744C38.4 56.5744 42.4 52.0744 48.1 52.0744C54.2 52.0744 58.4 56.6744 58.4 62.3744ZM96.2 65.5744C96.2 113.774 96.2 113.774 59.6 113.774C30.5 113.774 24.6 113.774 23.4 89.3744C32 89.3744 40.8 87.0744 51.2 80.8744C54.4 81.3744 57.2 81.7744 61.7 81.7744C68.7 81.7744 75.9 79.6744 83.2 75.5744C81.1 80.2744 80.7 82.5744 80.7 83.6744C80.7 84.9744 81.4 85.9744 82.8 85.9744C83.9 85.9744 84.6 85.4744 85.4 82.4744C86.1 79.9744 87.1 76.4744 88.6 72.8744C89.1 71.5744 89.2 70.9744 89.2 70.4744C89.2 69.1744 88.3 68.5744 86.1 68.3744C82.5 67.9744 79.3 67.4744 75.6 65.5744C74.9 65.2744 74.3 65.0744 73.8 65.0744C72.5 65.0744 71.9 65.9744 71.9 66.8744C71.9 69.8744 77.9 71.4744 81.6 71.9744C75.7 75.0744 68.6 76.8744 62.8 76.8744C59.5 76.8744 58.2 76.7744 56.6 76.5744C61.4 72.9744 64 67.4744 64 61.6744C64 52.2744 56.7 46.2744 48 46.2744C39.2 46.2744 32.6 52.8744 32.6 61.8744C32.6 69.6744 38.2 75.6744 45.1 78.5744C38.1 82.3744 31.3 84.1744 23.4 84.2744C23.4 79.0744 23.2 72.7744 23.2 65.5744C23.2 17.4744 23.2 17.4744 59.6 17.4744C96.2 17.4744 96.2 17.4744 96.2 65.5744Z" fill="white"/>
</svg>
