<svg xmlns="http://www.w3.org/2000/svg" width="75" height="98" viewBox="0 0 75 98" fill="none">
  <path d="M37.5513 96.5C28.1159 96.5 21.2049 96.4962 16.0572 95.7499C10.9472 95.009 7.88712 93.5758 5.8845 90.9626C3.81683 88.2645 2.66449 84.0495 2.08133 77.2009C1.50131 70.3892 1.5 61.2782 1.5 49C1.5 36.7218 1.50131 27.6108 2.08133 20.7991C2.66449 13.9505 3.81683 9.73549 5.8845 7.03741C7.88712 4.42423 10.9472 2.99099 16.0572 2.2501C21.2049 1.50376 28.1159 1.5 37.5513 1.5C46.9611 1.5 53.8526 1.50378 58.9855 2.25002C64.0801 2.9907 67.1304 4.42328 69.1271 7.03584C71.1893 9.73415 72.3386 13.9498 72.9202 20.7988C73.4987 27.6107 73.5 36.7219 73.5 49C73.5 61.2781 73.4987 70.3893 72.9202 77.2012C72.3386 84.0502 71.1893 88.2659 69.1271 90.9642C67.1304 93.5767 64.0801 95.0093 58.9855 95.75C53.8526 96.4962 46.9611 96.5 37.5513 96.5Z" stroke="#c3f4d1" stroke-width="3" stroke-miterlimit="10" stroke-linecap="round" stroke-linejoin="round"/>
</svg>
